# xmcd CD database file
#
# Track frame offsets:
#	150
#	25367
#	46303
#	66090
#	95969
#	114988
#	125594
#	151965
#	172439
#	194664
#	217601
#	241863
#	255228
#	273912
#	288986
#
# Disc length: 4112 seconds
#
# Revision: 0
# Processed by: cddbd v1.5.2PL0 Copyright (c) Steve Scherf et al.
# Submitted via: CDex 1.51
#
DISCID=d9100e0f
DTITLE=Samson SCHMITT - Crazy Sound
DYEAR=2013
DGENRE=Jazz
TTITLE0=Crazy Sound
TTITLE1=Bienvenue Chez Les Belges
TTITLE2=Tours De Manège
TTITLE3=Lovely Wife
TTITLE4=Gypsy Swing
TTITLE5=J'attendrais
TTITLE6=En Voyage
TTITLE7=Valse À Raindy
TTITLE8=Niglo
TTITLE9=Pouro Tata
TTITLE10=Chez Charlotte
TTITLE11=Remember Reinhardt Brothers
TTITLE12=Maison Hantée
TTITLE13=Les Yeux Noirs
TTITLE14=Crazy Dance
EXTD=YEAR: 2013
EXTT0=
EXTT1=
EXTT2=
EXTT3=
EXTT4=
EXTT5=
EXTT6=
EXTT7=
EXTT8=
EXTT9=
EXTT10=
EXTT11=
EXTT12=
EXTT13=
EXTT14=
PLAYORDER=
